# xmcd CD database file generated by OrangeCD 6.5
#
# Track frame offsets:
#	150
#	13057
#	25428
#	39174
#	52518
#	66065
#	78194
#	91222
#	103111
#	116025
#	129042
#	139862
#	153977
#	166126
#	179497
#	191676
#	205617
#	218315
#	230294
#	244372
#	256675
#	268956
#	281379
#	294212
#
# Disc length: 4084 seconds
#
# Revision: 1
# Processed by: cddbd v1.5.2PL0 Copyright (c) Steve Scherf et al.
# Submitted via: OrangeCD 6.5
#
DISCID=390ff218
DTITLE=Roy Rogers - Famouse Country Music Makers
DYEAR=1900
DGENRE=Country
TTITLE0=Don't fence Me In
TTITLE1=On The Old Spanish Trail
TTITLE2=Rock Me To Sleep In My Saddle
TTITLE3=Cowboy Night Herd Song
TTITLE4=That Pioneer Mother Of Mine
TTITLE5=Dust
TTITLE6=When I Camped Under The Stars
TTITLE7=Hold That Critter Down
TTITLE8=Way Out There
TTITLE9=Tumbling Tumbleweeds
TTITLE10=You Waited Too Long
TTITLE11=There's A Roundup In The Sky
TTITLE12=New Worried Man
TTITLE13=Echoes From The Hills
TTITLE14=A Gay Ranchero
TTITLE15=The Hills Of Old Wyomin'
TTITLE16=She Gave Her Heart To A Soldier Boy
TTITLE17=Ride Ranger Ride
TTITLE18=Listen To The Rhythm Of The Range
TTITLE19=Melody Of The Plains
TTITLE20=I've Sold My Saddle For An Old Guitar
TTITLE21=One More Ride
TTITLE22=Blue Shadows On The Trail
TTITLE23=Yesterday
EXTD=
EXTT0=
EXTT1=
EXTT2=
EXTT3=
EXTT4=
EXTT5=
EXTT6=
EXTT7=
EXTT8=
EXTT9=
EXTT10=
EXTT11=
EXTT12=
EXTT13=
EXTT14=
EXTT15=
EXTT16=
EXTT17=
EXTT18=
EXTT19=
EXTT20=
EXTT21=
EXTT22=
EXTT23=
PLAYORDER=
